<?xml version="1.0" standalone="no"?>
<!DOCTYPE svg PUBLIC "-//W3C//DTD SVG 20010904//EN"
 "http://www.w3.org/TR/2001/REC-SVG-20010904/DTD/svg10.dtd">
<svg version="1.0" xmlns="http://www.w3.org/2000/svg"
 width="260.000000pt" height="260.000000pt" viewBox="0 0 260.000000 260.000000"
 preserveAspectRatio="xMidYMid meet">
<metadata>
Created by potrace 1.14, written by Peter Selinger 2001-2017
</metadata>
<g transform="translate(0.000000,260.000000) scale(0.100000,-0.100000)"
fill="#000000" stroke="none">
<path d="M0 1300 l0 -1300 1300 0 1300 0 0 1300 0 1300 -1300 0 -1300 0 0
-1300z m1580 1085 c46 -9 89 -20 94 -25 6 -6 17 -10 26 -10 10 0 37 -15 61
-32 42 -31 49 -33 131 -33 81 0 90 -2 113 -26 15 -14 31 -43 36 -65 26 -112
-45 -251 -228 -447 -74 -79 -75 -81 -69 -121 8 -49 31 -217 47 -341 45 -352
-137 -634 -476 -741 -82 -26 -278 -27 -349 -1 -106 38 -162 73 -237 147 -60
58 -85 92 -112 150 -43 92 -67 184 -67 255 0 118 54 277 135 395 l37 55 -31
62 c-17 35 -37 63 -45 63 -29 0 -127 -88 -190 -170 -73 -96 -121 -209 -142
-340 -24 -143 -14 -292 26 -410 42 -124 151 -286 242 -361 58 -48 163 -119
176 -119 6 0 23 -6 39 -14 55 -27 99 -38 203 -51 132 -16 234 -5 350 37 76 28
212 100 250 133 8 7 25 16 38 19 16 6 22 3 22 -9 0 -25 -66 -82 -165 -142 -61
-37 -167 -74 -260 -93 -65 -13 -241 -9 -315 7 -63 14 -149 44 -156 54 -3 5
-12 9 -20 9 -27 0 -158 91 -227 159 -126 121 -202 253 -253 436 -21 72 -29
238 -15 315 18 105 30 158 40 177 5 10 19 43 31 73 47 116 132 220 255 313
l70 53 11 70 c12 71 59 187 96 234 44 57 137 145 198 185 64 42 210 115 231
115 6 0 31 6 57 14 48 15 160 32 222 34 19 1 73 -5 120 -13z m728 -1569 c65
-36 83 -143 37 -216 -30 -48 -75 -73 -133 -74 -38 -1 -48 4 -77 36 -54 58 -58
121 -13 188 48 70 128 99 186 66z"/>
<path d="M1360 2338 c-70 -12 -157 -36 -193 -54 -16 -8 -33 -14 -39 -14 -6 0
-48 -23 -95 -51 -100 -60 -198 -149 -246 -222 -41 -63 -83 -177 -74 -201 6
-16 11 -15 54 8 173 90 296 115 718 146 77 6 145 13 152 15 7 2 15 21 18 42
11 67 37 127 78 181 31 41 37 55 28 66 -23 27 -137 73 -209 85 -82 12 -113 12
-192 -1z"/>
<path d="M1866 2214 c-4 -9 -1 -32 6 -50 24 -68 -30 -189 -109 -244 -29 -20
-33 -28 -33 -69 0 -25 5 -53 10 -61 7 -12 13 -11 36 10 33 32 106 133 131 185
42 84 52 196 21 232 -15 18 -55 16 -62 -3z"/>
<path d="M1788 2142 c-32 -36 -67 -145 -50 -156 21 -13 67 60 77 120 7 47 -5
62 -27 36z"/>
<path d="M1425 1890 c-38 -4 -106 -8 -150 -9 -44 -1 -105 -8 -135 -16 -30 -8
-69 -15 -87 -15 -18 0 -47 -6 -65 -14 -18 -7 -60 -22 -93 -32 -80 -25 -175
-80 -175 -103 0 -23 38 -101 49 -101 5 0 33 13 63 28 57 30 67 34 168 63 81
22 126 23 202 3 68 -17 126 -50 179 -101 29 -28 42 -33 60 -28 36 12 178 99
183 112 11 28 17 189 7 202 -12 18 -103 23 -206 11z"/>
<path d="M1025 1647 c-91 -15 -205 -72 -205 -103 0 -24 75 -63 146 -75 98 -17
258 -7 316 20 26 11 51 21 56 21 22 0 19 30 -6 53 -42 40 -100 68 -171 83 -37
7 -68 13 -71 12 -3 0 -32 -5 -65 -11z"/>
<path d="M1585 1574 c-11 -9 -42 -27 -69 -40 -53 -28 -53 -30 -26 -134 6 -25
10 -77 8 -115 -4 -60 -10 -79 -40 -126 -41 -64 -99 -114 -178 -155 -47 -24
-67 -29 -136 -29 -71 0 -85 3 -121 27 -155 103 -99 348 80 348 37 0 50 -6 81
-36 45 -44 45 -74 1 -87 -61 -18 -80 -32 -83 -61 -6 -46 6 -75 38 -91 64 -33
149 -6 219 71 57 62 71 102 70 194 -1 100 -8 115 -50 114 -18 -1 -54 -8 -79
-17 -85 -29 -155 -39 -240 -34 -111 6 -169 20 -241 58 -57 31 -60 31 -79 14
-28 -25 -120 -218 -120 -251 0 -16 -5 -47 -10 -69 -7 -27 -6 -57 1 -90 46
-216 127 -339 267 -406 60 -28 77 -32 157 -32 106 0 170 22 252 85 125 96 236
282 296 498 29 103 47 215 47 298 0 87 -6 96 -45 66z"/>
</g>
</svg>
